<svg width="36" height="36" viewBox="0 0 36 36" fill="none" xmlns="http://www.w3.org/2000/svg">
  <path d="m4.05 4.52-1.12.42c-.34.16-.56.27-.57.33-.02.07.45 9.43 4.64 17.83 4.3 8.6 9.97 11.16 11 11.57 1.02-.4 6.7-2.97 11-11.57 4.2-8.4 4.7-17.69 4.64-17.83-.05-.13-.3-.21-.57-.33a62 62 0 0 0-5.02-1.73c-3.12-.95-7-1.89-10.11-1.88-3.1 0-6.94.94-10.04 1.89-1.54.47-2.88.94-3.85 1.3Z" fill="#fff" stroke="url(#paint0_linear_5387_790)"/>
  <path d="M7 8.4a.55.55 0 0 1 .38-.55l7.92-2.5c.35-.1.7.16.7.58v22.23q0 .1-.05.11-.04.04-.1 0c-1.1-.63-3.46-3.34-5.66-8.51C7.91 14.39 7.07 10.12 7 8.4Z" stroke="url(#paint1_linear_5387_790)"/>
  <path d="M19.7 5.1s2.92.44 4.75 1.02 3.63 1.24 4.29 1.49q.25.11.26.4c-.03 1.3-.9 5.87-3.33 11.56-2.79 6.56-5.96 8.77-5.96 8.77" stroke="url(#paint2_linear_5387_790)" stroke-linecap="round"/>
  <defs>
    <linearGradient gradientUnits="userSpaceOnUse" id="paint0_linear_5387_790" x1="2.04" x2="33.96" y1="5.61" y2="5.61">
      <stop stop-color="#e81dcd"/>
      <stop offset="1" stop-color="#1735f0"/>
    </linearGradient>
    <linearGradient gradientUnits="userSpaceOnUse" id="paint1_linear_5387_790" x1="6.74" x2="16.25" y1="7.82" y2="7.82">
      <stop stop-color="#e10ecb"/>
      <stop offset="1" stop-color="#1a35f0"/>
    </linearGradient>
    <linearGradient gradientUnits="userSpaceOnUse" id="paint2_linear_5387_790" x1="29" x2="19.71" y1="10.06" y2="10.06">
      <stop stop-color="#1e34ef"/>
      <stop offset="1" stop-color="#e50ecb"/>
    </linearGradient>
  </defs>
</svg>
