<svg width="57" height="20" viewBox="0 0 57 20" fill="none" xmlns="http://www.w3.org/2000/svg">
  <rect width="56" height="19" fill="url(#paint0_linear_5366_725)" rx="5.5" stroke="#f35555" x=".5" y=".5"/>
  <path d="M6.4 15V5.2h4.04q1.3 0 2.22.42t1.45 1.2q.5.8.5 1.87t-.5 1.86q-.5.76-1.45 1.19-.91.4-2.22.4H7.4l.82-.82V15zm6.42 0-2.48-3.56h1.95L14.78 15zm-4.6-3.49-.8-.86h2.93q1.2 0 1.8-.52.63-.53.63-1.44 0-.94-.62-1.45-.6-.5-1.8-.5H7.4l.82-.9zM20 15.1q-1.25 0-2.18-.5t-1.44-1.36a4 4 0 0 1-.5-1.98q0-1.11.48-1.97.51-.87 1.37-1.36a4 4 0 0 1 2-.49q1.1 0 1.95.48.85.47 1.35 1.34a4 4 0 0 1 .46 2.56h-6.23v-1.16h5.3l-.68.36q0-.64-.27-1.13a2 2 0 0 0-.77-.77 2 2 0 0 0-1.1-.28q-.64 0-1.14.28-.48.28-.75.78a2.4 2.4 0 0 0-.27 1.17v.28q0 .66.3 1.19.31.5.88.8.56.27 1.28.27.63 0 1.14-.2.5-.19.9-.6l.93 1.07q-.5.6-1.27.91-.76.3-1.74.3m4.43 2.71q-.5 0-.93-.1a2 2 0 0 1-.75-.33l.5-1.3q.4.3 1.02.3.48 0 .74-.32.27-.3.27-.88V7.52h1.75v7.62a2.7 2.7 0 0 1-.69 1.95q-.66.72-1.91.72M26.14 6.3q-.5 0-.81-.3-.3-.32-.31-.75 0-.45.3-.74.34-.3.82-.3.5 0 .8.29a1 1 0 0 1 .32.71q0 .46-.3.78-.32.3-.82.31m6.69 8.8q-1.25 0-2.18-.48-.93-.51-1.45-1.37a4 4 0 0 1-.5-1.98q0-1.11.49-1.97.51-.87 1.37-1.36a4 4 0 0 1 2-.49q1.1 0 1.95.48.86.47 1.34 1.34a4 4 0 0 1 .47 2.56h-6.23v-1.16h5.3l-.68.36q0-.64-.27-1.13a2 2 0 0 0-.77-.77 2 2 0 0 0-1.1-.28q-.65 0-1.14.28t-.76.78a2.4 2.4 0 0 0-.26 1.17v.28q0 .66.3 1.19.32.5.87.8.56.27 1.3.27.62 0 1.13-.2.5-.19.9-.6l.93 1.07q-.5.6-1.27.91-.76.3-1.74.3m8.62 0q-1.17 0-2.1-.48a3.7 3.7 0 0 1-1.94-3.35 3.7 3.7 0 0 1 1.94-3.33 4.4 4.4 0 0 1 2.1-.49q1.1 0 1.92.45.84.44 1.28 1.29l-1.35.78a2.1 2.1 0 0 0-1.86-1.04q-.65 0-1.16.28a2 2 0 0 0-.81.82q-.3.52-.3 1.24 0 .73.3 1.26.3.52.8.8a2.4 2.4 0 0 0 2.2.03q.49-.25.83-.79l1.35.79q-.45.85-1.28 1.3t-1.92.45m7.62 0q-1.23 0-1.9-.62-.68-.64-.68-1.9v-6.7h1.75v6.67q0 .53.27.82.28.3.77.3.6 0 .98-.31l.49 1.24q-.3.26-.76.38-.45.13-.92.13m-3.8-6.11v-1.4h4.97v1.4z" fill="#fff"/>
  <defs>
    <linearGradient gradientUnits="userSpaceOnUse" id="paint0_linear_5366_725" x1="0" x2="57" y1="10" y2="10">
      <stop stop-color="#e3445c"/>
      <stop offset=".5" stop-color="#f87797"/>
      <stop offset="1" stop-color="#f35555"/>
    </linearGradient>
  </defs>
</svg>
